<?xml version="1.0" encoding="UTF-8" standalone="no"?>
<!DOCTYPE svg PUBLIC "-//W3C//DTD SVG 1.1//EN"
 "http://www.w3.org/Graphics/SVG/1.1/DTD/svg11.dtd">
<!-- Generated by graphviz version 2.38.0 (20140413.2041)
 -->
<!-- Title: %3 Pages: 1 -->
<svg width="188pt" height="311pt"
 viewBox="0.00 0.00 187.55 311.30" xmlns="http://www.w3.org/2000/svg" xmlns:xlink="http://www.w3.org/1999/xlink">
<g id="graph0" class="graph" transform="scale(1 1) rotate(0) translate(4 307.296)">
<title>%3</title>
<polygon fill="white" stroke="none" points="-4,4 -4,-307.296 183.547,-307.296 183.547,4 -4,4"/>
<!-- fake0 -->
<g id="node1" class="node"><title>fake0</title>
</g>
<!-- q0 -->
<g id="node5" class="node"><title>q0</title>
<ellipse fill="none" stroke="black" cx="30.5473" cy="-212.296" rx="27" ry="18"/>
<text text-anchor="middle" x="30.5473" y="-208.596" font-family="Times New Roman,serif" font-size="14.00">q0</text>
</g>
<!-- fake0&#45;&gt;q0 -->
<g id="edge2" class="edge"><title>fake0&#45;&gt;q0</title>
<path fill="none" stroke="black" stroke-width="2" d="M30.5473,-267.109C30.5473,-259.086 30.5473,-249.344 30.5473,-240.366"/>
<polygon fill="black" stroke="black" stroke-width="2" points="34.0474,-240.325 30.5473,-230.325 27.0474,-240.325 34.0474,-240.325"/>
</g>
<!-- fake1 -->
<g id="node2" class="node"><title>fake1</title>
</g>
<!-- q2 -->
<g id="node3" class="node"><title>q2</title>
<ellipse fill="none" stroke="black" cx="127.547" cy="-212.296" rx="27" ry="18"/>
<text text-anchor="middle" x="127.547" y="-208.596" font-family="Times New Roman,serif" font-size="14.00">q2</text>
</g>
<!-- fake1&#45;&gt;q2 -->
<g id="edge1" class="edge"><title>fake1&#45;&gt;q2</title>
<path fill="none" stroke="black" stroke-width="2" d="M127.547,-267.109C127.547,-259.086 127.547,-249.344 127.547,-240.366"/>
<polygon fill="black" stroke="black" stroke-width="2" points="131.047,-240.325 127.547,-230.325 124.047,-240.325 131.047,-240.325"/>
</g>
<!-- q2&#45;&gt;q2 -->
<g id="edge5" class="edge"><title>q2&#45;&gt;q2</title>
<path fill="none" stroke="black" d="M152.991,-218.987C163.575,-219.449 172.547,-217.218 172.547,-212.296 172.547,-209.066 168.683,-206.996 163.035,-206.084"/>
<polygon fill="black" stroke="black" points="163.146,-202.585 152.991,-205.606 162.813,-209.578 163.146,-202.585"/>
<text text-anchor="middle" x="176.047" y="-208.596" font-family="Times New Roman,serif" font-size="14.00">a</text>
</g>
<!-- c -->
<g id="node4" class="node"><title>c</title>
<ellipse fill="none" stroke="black" cx="105.547" cy="-22" rx="18" ry="18"/>
<ellipse fill="none" stroke="black" cx="105.547" cy="-22" rx="22" ry="22"/>
<text text-anchor="middle" x="105.547" y="-18.3" font-family="Times New Roman,serif" font-size="14.00">c</text>
</g>
<!-- q2&#45;&gt;c -->
<g id="edge11" class="edge"><title>q2&#45;&gt;c</title>
<path fill="none" stroke="black" d="M125.556,-194.254C121.857,-162.592 113.875,-94.2755 109.187,-54.1559"/>
<polygon fill="black" stroke="black" points="112.652,-53.6485 108.015,-44.1222 105.699,-54.4609 112.652,-53.6485"/>
<text text-anchor="middle" x="122.547" y="-115.448" font-family="Times New Roman,serif" font-size="14.00">b</text>
</g>
<!-- q1 -->
<g id="node6" class="node"><title>q1</title>
<ellipse fill="none" stroke="black" cx="65.5473" cy="-119.148" rx="20.2726" ry="20.2726"/>
<ellipse fill="none" stroke="black" cx="65.5473" cy="-119.148" rx="24.2973" ry="24.2973"/>
<text text-anchor="middle" x="65.5473" y="-115.448" font-family="Times New Roman,serif" font-size="14.00">q1</text>
</g>
<!-- q2&#45;&gt;q1 -->
<g id="edge6" class="edge"><title>q2&#45;&gt;q1</title>
<path fill="none" stroke="black" d="M116.748,-195.42C107.931,-182.458 95.2532,-163.82 84.719,-148.333"/>
<polygon fill="black" stroke="black" points="87.3281,-145.946 78.8098,-139.646 81.5402,-149.883 87.3281,-145.946"/>
<text text-anchor="middle" x="105.047" y="-165.096" font-family="Times New Roman,serif" font-size="14.00">a</text>
</g>
<!-- c&#45;&gt;c -->
<g id="edge8" class="edge"><title>c&#45;&gt;c</title>
<path fill="none" stroke="black" d="M127.354,-26.2451C137.11,-26.6494 145.547,-25.2344 145.547,-22 145.547,-19.9785 142.251,-18.6677 137.398,-18.0676"/>
<polygon fill="black" stroke="black" points="137.458,-14.5679 127.354,-17.7549 137.24,-21.5645 137.458,-14.5679"/>
<text text-anchor="middle" x="149.047" y="-18.3" font-family="Times New Roman,serif" font-size="14.00">a</text>
</g>
<!-- c&#45;&gt;c -->
<g id="edge9" class="edge"><title>c&#45;&gt;c</title>
<path fill="none" stroke="black" d="M126.36,-29.2015C144.431,-32.4865 163.547,-30.0859 163.547,-22 163.547,-15.4302 150.928,-12.6136 136.502,-13.5503"/>
<polygon fill="black" stroke="black" points="135.858,-10.1032 126.36,-14.7985 136.713,-17.0508 135.858,-10.1032"/>
<text text-anchor="middle" x="167.547" y="-18.3" font-family="Times New Roman,serif" font-size="14.00">b</text>
</g>
<!-- q0&#45;&gt;q0 -->
<g id="edge3" class="edge"><title>q0&#45;&gt;q0</title>
<path fill="none" stroke="black" d="M55.9908,-218.987C66.5751,-219.449 75.5473,-217.218 75.5473,-212.296 75.5473,-209.066 71.6833,-206.996 66.0354,-206.084"/>
<polygon fill="black" stroke="black" points="66.146,-202.585 55.9908,-205.606 65.8129,-209.578 66.146,-202.585"/>
<text text-anchor="middle" x="79.0473" y="-208.596" font-family="Times New Roman,serif" font-size="14.00">a</text>
</g>
<!-- q0&#45;&gt;q1 -->
<g id="edge7" class="edge"><title>q0&#45;&gt;q1</title>
<path fill="none" stroke="black" d="M29.1028,-194.108C28.8714,-184.212 29.6214,-171.712 33.5473,-161.296 35.7147,-155.546 38.9839,-149.951 42.6178,-144.834"/>
<polygon fill="black" stroke="black" points="45.5507,-146.765 48.9476,-136.729 40.0339,-142.456 45.5507,-146.765"/>
<text text-anchor="middle" x="37.5473" y="-165.096" font-family="Times New Roman,serif" font-size="14.00">b</text>
</g>
<!-- q1&#45;&gt;c -->
<g id="edge10" class="edge"><title>q1&#45;&gt;c</title>
<path fill="none" stroke="black" d="M74.6239,-96.5576C80.1675,-83.3711 87.3261,-66.3427 93.3595,-51.9913"/>
<polygon fill="black" stroke="black" points="96.6739,-53.1383 97.3229,-42.5634 90.2209,-50.4255 96.6739,-53.1383"/>
<text text-anchor="middle" x="92.0473" y="-65.8" font-family="Times New Roman,serif" font-size="14.00">a</text>
</g>
<!-- q1&#45;&gt;q0 -->
<g id="edge4" class="edge"><title>q1&#45;&gt;q0</title>
<path fill="none" stroke="black" d="M57.1862,-141.923C52.1946,-154.922 45.8241,-171.512 40.5646,-185.209"/>
<polygon fill="black" stroke="black" points="37.2842,-183.988 36.9668,-194.578 43.819,-186.498 37.2842,-183.988"/>
<text text-anchor="middle" x="53.5473" y="-165.096" font-family="Times New Roman,serif" font-size="14.00">b</text>
</g>
</g>
</svg>
