<?xml version="1.0" encoding="UTF-8" standalone="no"?>
<!DOCTYPE svg PUBLIC "-//W3C//DTD SVG 1.1//EN"
 "http://www.w3.org/Graphics/SVG/1.1/DTD/svg11.dtd">
<!-- Generated by graphviz version 2.38.0 (20140413.2041)
 -->
<!-- Title: %3 Pages: 1 -->
<svg width="286pt" height="473pt"
 viewBox="0.00 0.00 286.25 473.00" xmlns="http://www.w3.org/2000/svg" xmlns:xlink="http://www.w3.org/1999/xlink">
<g id="graph0" class="graph" transform="scale(1 1) rotate(0) translate(4 469)">
<title>%3</title>
<polygon fill="white" stroke="none" points="-4,4 -4,-469 282.247,-469 282.247,4 -4,4"/>
<!-- fake0 -->
<g id="node1" class="node"><title>fake0</title>
</g>
<!-- q2 -->
<g id="node8" class="node"><title>q2</title>
<ellipse fill="none" stroke="black" cx="89" cy="-374" rx="27" ry="18"/>
<text text-anchor="middle" x="89" y="-370.3" font-family="Times New Roman,serif" font-size="14.00">q2</text>
</g>
<!-- fake0&#45;&gt;q2 -->
<g id="edge4" class="edge"><title>fake0&#45;&gt;q2</title>
<path fill="none" stroke="black" stroke-width="2" d="M89,-428.813C89,-420.789 89,-411.047 89,-402.069"/>
<polygon fill="black" stroke="black" stroke-width="2" points="92.5001,-402.029 89,-392.029 85.5001,-402.029 92.5001,-402.029"/>
</g>
<!-- fake1 -->
<g id="node2" class="node"><title>fake1</title>
</g>
<!-- q3q2 -->
<g id="node7" class="node"><title>q3q2</title>
<ellipse fill="none" stroke="black" cx="223" cy="-287" rx="29.4969" ry="18"/>
<text text-anchor="middle" x="223" y="-283.3" font-family="Times New Roman,serif" font-size="14.00">q3q2</text>
</g>
<!-- fake1&#45;&gt;q3q2 -->
<g id="edge3" class="edge"><title>fake1&#45;&gt;q3q2</title>
<path fill="none" stroke="black" stroke-width="2" d="M223,-355.799C223,-344.163 223,-328.548 223,-315.237"/>
<polygon fill="black" stroke="black" stroke-width="2" points="226.5,-315.175 223,-305.175 219.5,-315.175 226.5,-315.175"/>
</g>
<!-- fake2 -->
<g id="node3" class="node"><title>fake2</title>
</g>
<!-- q1 -->
<g id="node9" class="node"><title>q1</title>
<ellipse fill="none" stroke="black" cx="88" cy="-200" rx="27" ry="18"/>
<text text-anchor="middle" x="88" y="-196.3" font-family="Times New Roman,serif" font-size="14.00">q1</text>
</g>
<!-- fake2&#45;&gt;q1 -->
<g id="edge2" class="edge"><title>fake2&#45;&gt;q1</title>
<path fill="none" stroke="black" stroke-width="2" d="M134.279,-270.012C125.786,-257.348 113.787,-239.454 104.135,-225.061"/>
<polygon fill="black" stroke="black" stroke-width="2" points="106.957,-222.985 98.4806,-216.629 101.143,-226.884 106.957,-222.985"/>
</g>
<!-- fake3 -->
<g id="node4" class="node"><title>fake3</title>
</g>
<!-- q0 -->
<g id="node6" class="node"><title>q0</title>
<ellipse fill="none" stroke="black" cx="164" cy="-113" rx="27" ry="18"/>
<text text-anchor="middle" x="164" y="-109.3" font-family="Times New Roman,serif" font-size="14.00">q0</text>
</g>
<!-- fake3&#45;&gt;q0 -->
<g id="edge1" class="edge"><title>fake3&#45;&gt;q0</title>
<path fill="none" stroke="black" stroke-width="2" d="M164,-181.799C164,-170.163 164,-154.548 164,-141.237"/>
<polygon fill="black" stroke="black" stroke-width="2" points="167.5,-141.175 164,-131.175 160.5,-141.175 167.5,-141.175"/>
</g>
<!-- c -->
<g id="node5" class="node"><title>c</title>
<ellipse fill="none" stroke="black" cx="150" cy="-22" rx="18" ry="18"/>
<ellipse fill="none" stroke="black" cx="150" cy="-22" rx="22" ry="22"/>
<text text-anchor="middle" x="150" y="-18.3" font-family="Times New Roman,serif" font-size="14.00">c</text>
</g>
<!-- c&#45;&gt;c -->
<g id="edge15" class="edge"><title>c&#45;&gt;c</title>
<path fill="none" stroke="black" d="M172.212,-24.8406C181.795,-25.0732 190,-24.1263 190,-22 190,-20.7043 186.953,-19.8465 182.405,-19.4268"/>
<polygon fill="black" stroke="black" points="182.301,-15.9229 172.212,-19.1594 182.117,-22.9205 182.301,-15.9229"/>
<text text-anchor="middle" x="194" y="-18.3" font-family="Times New Roman,serif" font-size="14.00">b</text>
</g>
<!-- c&#45;&gt;c -->
<g id="edge16" class="edge"><title>c&#45;&gt;c</title>
<path fill="none" stroke="black" d="M171.717,-26.9074C189.516,-28.9366 208,-27.3008 208,-22 208,-17.7345 196.031,-15.8422 182.082,-16.3231"/>
<polygon fill="black" stroke="black" points="181.431,-12.8617 171.717,-17.0926 181.949,-19.8425 181.431,-12.8617"/>
<text text-anchor="middle" x="211.5" y="-18.3" font-family="Times New Roman,serif" font-size="14.00">a</text>
</g>
<!-- c&#45;&gt;c -->
<g id="edge17" class="edge"><title>c&#45;&gt;c</title>
<path fill="none" stroke="black" d="M171.396,-28.2619C196.602,-32.8471 226,-30.7598 226,-22 226,-14.4036 203.893,-11.8251 181.582,-14.2643"/>
<polygon fill="black" stroke="black" points="180.792,-10.8422 171.396,-15.7381 181.794,-17.77 180.792,-10.8422"/>
<text text-anchor="middle" x="229.5" y="-18.3" font-family="Times New Roman,serif" font-size="14.00">c</text>
</g>
<!-- q0&#45;&gt;c -->
<g id="edge18" class="edge"><title>q0&#45;&gt;c</title>
<path fill="none" stroke="black" d="M149.471,-97.6255C144.514,-91.7472 139.575,-84.5544 137,-77 134.235,-68.889 134.956,-59.902 137.077,-51.6247"/>
<polygon fill="black" stroke="black" points="140.447,-52.5789 140.216,-41.9866 133.791,-50.4106 140.447,-52.5789"/>
<text text-anchor="middle" x="141" y="-65.8" font-family="Times New Roman,serif" font-size="14.00">b</text>
</g>
<!-- q0&#45;&gt;c -->
<g id="edge19" class="edge"><title>q0&#45;&gt;c</title>
<path fill="none" stroke="black" d="M161.301,-94.8399C159.477,-83.2473 157.018,-67.6131 154.859,-53.8898"/>
<polygon fill="black" stroke="black" points="158.294,-53.2012 153.282,-43.8665 151.379,-54.289 158.294,-53.2012"/>
<text text-anchor="middle" x="162.5" y="-65.8" font-family="Times New Roman,serif" font-size="14.00">a</text>
</g>
<!-- q0&#45;&gt;c -->
<g id="edge20" class="edge"><title>q0&#45;&gt;c</title>
<path fill="none" stroke="black" d="M168.97,-95.1587C171.127,-85.3782 172.627,-72.8782 170,-62 169.043,-58.0358 167.61,-54.0222 165.942,-50.1536"/>
<polygon fill="black" stroke="black" points="168.981,-48.3997 161.451,-40.9464 162.69,-51.4686 168.981,-48.3997"/>
<text text-anchor="middle" x="175.5" y="-65.8" font-family="Times New Roman,serif" font-size="14.00">c</text>
</g>
<!-- q3q2&#45;&gt;c -->
<g id="edge21" class="edge"><title>q3q2&#45;&gt;c</title>
<path fill="none" stroke="black" d="M230.198,-269.417C246.167,-229.84 279.89,-128.229 237,-62 224.818,-43.1886 201.185,-33.3662 181.622,-28.2865"/>
<polygon fill="black" stroke="black" points="182.374,-24.8683 171.845,-26.0399 180.807,-31.6905 182.374,-24.8683"/>
<text text-anchor="middle" x="260.5" y="-152.8" font-family="Times New Roman,serif" font-size="14.00">a</text>
</g>
<!-- q3q2&#45;&gt;c -->
<g id="edge22" class="edge"><title>q3q2&#45;&gt;c</title>
<path fill="none" stroke="black" d="M222.955,-268.979C222.434,-235.092 219.059,-157.103 200,-95 194.417,-76.8072 182.358,-59.2085 171.482,-45.9642"/>
<polygon fill="black" stroke="black" points="174.094,-43.6335 164.932,-38.3141 168.777,-48.1864 174.094,-43.6335"/>
<text text-anchor="middle" x="218.5" y="-152.8" font-family="Times New Roman,serif" font-size="14.00">c</text>
</g>
<!-- q3q2&#45;&gt;q3q2 -->
<g id="edge6" class="edge"><title>q3q2&#45;&gt;q3q2</title>
<path fill="none" stroke="black" d="M249.714,-294.806C260.827,-295.344 270.247,-292.742 270.247,-287 270.247,-283.142 265.995,-280.701 259.834,-279.679"/>
<polygon fill="black" stroke="black" points="259.87,-276.176 249.714,-279.194 259.535,-283.168 259.87,-276.176"/>
<text text-anchor="middle" x="274.247" y="-283.3" font-family="Times New Roman,serif" font-size="14.00">b</text>
</g>
<!-- q3q2&#45;&gt;q2 -->
<g id="edge7" class="edge"><title>q3q2&#45;&gt;q2</title>
<path fill="none" stroke="black" d="M199.984,-298.411C178.52,-308.15 149.444,-321.429 147,-323 134.169,-331.252 121.187,-342.152 110.768,-351.669"/>
<polygon fill="black" stroke="black" points="108.259,-349.223 103.345,-358.609 113.04,-354.336 108.259,-349.223"/>
<text text-anchor="middle" x="151" y="-326.8" font-family="Times New Roman,serif" font-size="14.00">b</text>
</g>
<!-- q3q2&#45;&gt;q1 -->
<g id="edge5" class="edge"><title>q3q2&#45;&gt;q1</title>
<path fill="none" stroke="black" d="M203.37,-273.64C180.343,-259.142 142.005,-235.003 115.896,-218.564"/>
<polygon fill="black" stroke="black" points="117.544,-215.466 107.217,-213.099 113.814,-221.389 117.544,-215.466"/>
<text text-anchor="middle" x="168" y="-239.8" font-family="Times New Roman,serif" font-size="14.00">b</text>
</g>
<!-- q2&#45;&gt;c -->
<g id="edge23" class="edge"><title>q2&#45;&gt;c</title>
<path fill="none" stroke="black" d="M66.5415,-363.421C40.176,-350.487 0,-324.75 0,-288 0,-288 0,-288 0,-112 0,-57.4754 74.2108,-35.6217 118.236,-27.4545"/>
<polygon fill="black" stroke="black" points="118.926,-30.8873 128.189,-25.7443 117.74,-23.9884 118.926,-30.8873"/>
<text text-anchor="middle" x="4" y="-196.3" font-family="Times New Roman,serif" font-size="14.00">b</text>
</g>
<!-- q2&#45;&gt;q3q2 -->
<g id="edge9" class="edge"><title>q2&#45;&gt;q3q2</title>
<path fill="none" stroke="black" d="M110.249,-362.729C123.408,-356.127 140.502,-347.106 155,-338 169.619,-328.818 185.184,-317.498 197.729,-307.952"/>
<polygon fill="black" stroke="black" points="200.093,-310.549 205.882,-301.675 195.823,-305.002 200.093,-310.549"/>
<text text-anchor="middle" x="180.5" y="-326.8" font-family="Times New Roman,serif" font-size="14.00">a</text>
</g>
<!-- q2&#45;&gt;q2 -->
<g id="edge10" class="edge"><title>q2&#45;&gt;q2</title>
<path fill="none" stroke="black" d="M114.443,-380.691C125.028,-381.152 134,-378.922 134,-374 134,-370.77 130.136,-368.699 124.488,-367.788"/>
<polygon fill="black" stroke="black" points="124.599,-364.289 114.443,-367.309 124.266,-371.281 124.599,-364.289"/>
<text text-anchor="middle" x="137.5" y="-370.3" font-family="Times New Roman,serif" font-size="14.00">a</text>
</g>
<!-- q2&#45;&gt;q1 -->
<g id="edge8" class="edge"><title>q2&#45;&gt;q1</title>
<path fill="none" stroke="black" d="M79.9012,-356.841C72.9011,-343.43 63.8027,-323.61 60,-305 56.7969,-289.324 56.895,-284.696 60,-269 62.8934,-254.374 68.9738,-238.941 74.7313,-226.482"/>
<polygon fill="black" stroke="black" points="78.017,-227.726 79.2125,-217.199 71.7131,-224.683 78.017,-227.726"/>
<text text-anchor="middle" x="63.5" y="-283.3" font-family="Times New Roman,serif" font-size="14.00">a</text>
</g>
<!-- q2&#45;&gt;q1 -->
<g id="edge11" class="edge"><title>q2&#45;&gt;q1</title>
<path fill="none" stroke="black" d="M88.9005,-355.879C88.7268,-326.001 88.3669,-264.113 88.1586,-228.274"/>
<polygon fill="black" stroke="black" points="91.6573,-228.031 88.0991,-218.052 84.6574,-228.072 91.6573,-228.031"/>
<text text-anchor="middle" x="92.5" y="-283.3" font-family="Times New Roman,serif" font-size="14.00">c</text>
</g>
<!-- q1&#45;&gt;c -->
<g id="edge13" class="edge"><title>q1&#45;&gt;c</title>
<path fill="none" stroke="black" d="M81.5672,-182.287C74.4961,-161.621 65.0084,-125.446 72,-95 75.6481,-79.1138 77.1257,-74.142 88,-62 97.238,-51.6851 109.835,-43.0891 121.261,-36.6159"/>
<polygon fill="black" stroke="black" points="122.926,-39.6948 130.088,-31.8873 119.62,-33.5244 122.926,-39.6948"/>
<text text-anchor="middle" x="76" y="-109.3" font-family="Times New Roman,serif" font-size="14.00">b</text>
</g>
<!-- q1&#45;&gt;c -->
<g id="edge14" class="edge"><title>q1&#45;&gt;c</title>
<path fill="none" stroke="black" d="M92.7076,-181.872C100.083,-155.683 115.259,-104.272 132,-62 133.371,-58.5377 134.892,-54.9421 136.453,-51.3971"/>
<polygon fill="black" stroke="black" points="139.655,-52.8099 140.599,-42.2572 133.28,-49.918 139.655,-52.8099"/>
<text text-anchor="middle" x="123.5" y="-109.3" font-family="Times New Roman,serif" font-size="14.00">c</text>
</g>
<!-- q1&#45;&gt;q0 -->
<g id="edge12" class="edge"><title>q1&#45;&gt;q0</title>
<path fill="none" stroke="black" d="M101.238,-184.194C112.936,-171.111 130.179,-151.826 143.633,-136.779"/>
<polygon fill="black" stroke="black" points="146.602,-138.709 150.659,-128.921 141.384,-134.043 146.602,-138.709"/>
<text text-anchor="middle" x="134.5" y="-152.8" font-family="Times New Roman,serif" font-size="14.00">a</text>
</g>
</g>
</svg>
