<?xml version="1.0" encoding="UTF-8" standalone="no"?>
<!DOCTYPE svg PUBLIC "-//W3C//DTD SVG 1.1//EN"
 "http://www.w3.org/Graphics/SVG/1.1/DTD/svg11.dtd">
<!-- Generated by graphviz version 2.38.0 (20140413.2041)
 -->
<!-- Title: %3 Pages: 1 -->
<svg width="69pt" height="216pt"
 viewBox="0.00 0.00 69.09 216.30" xmlns="http://www.w3.org/2000/svg" xmlns:xlink="http://www.w3.org/1999/xlink">
<g id="graph0" class="graph" transform="scale(1 1) rotate(0) translate(4 212.296)">
<title>%3</title>
<polygon fill="white" stroke="none" points="-4,4 -4,-212.296 65.0946,-212.296 65.0946,4 -4,4"/>
<!-- fake0 -->
<g id="node1" class="node"><title>fake0</title>
</g>
<!-- q0 -->
<g id="node3" class="node"><title>q0</title>
<ellipse fill="none" stroke="black" cx="30.5473" cy="-117.296" rx="27" ry="18"/>
<text text-anchor="middle" x="30.5473" y="-113.596" font-family="Times New Roman,serif" font-size="14.00">q0</text>
</g>
<!-- fake0&#45;&gt;q0 -->
<g id="edge1" class="edge"><title>fake0&#45;&gt;q0</title>
<path fill="none" stroke="black" stroke-width="2" d="M30.5473,-172.109C30.5473,-164.086 30.5473,-154.344 30.5473,-145.366"/>
<polygon fill="black" stroke="black" stroke-width="2" points="34.0474,-145.325 30.5473,-135.325 27.0474,-145.325 34.0474,-145.325"/>
</g>
<!-- q1 -->
<g id="node2" class="node"><title>q1</title>
<ellipse fill="none" stroke="black" cx="30.5473" cy="-24.1482" rx="20.2726" ry="20.2726"/>
<ellipse fill="none" stroke="black" cx="30.5473" cy="-24.1482" rx="24.2973" ry="24.2973"/>
<text text-anchor="middle" x="30.5473" y="-20.4482" font-family="Times New Roman,serif" font-size="14.00">q1</text>
</g>
<!-- q0&#45;&gt;q1 -->
<g id="edge2" class="edge"><title>q0&#45;&gt;q1</title>
<path fill="none" stroke="black" d="M30.5473,-99.1521C30.5473,-87.728 30.5473,-72.3355 30.5473,-58.5474"/>
<polygon fill="black" stroke="black" points="34.0474,-58.4086 30.5473,-48.4086 27.0474,-58.4086 34.0474,-58.4086"/>
<text text-anchor="middle" x="34.0473" y="-70.0964" font-family="Times New Roman,serif" font-size="14.00">a</text>
</g>
</g>
</svg>
